<?xml version="1.0" encoding="UTF-8" standalone="no"?>
<svg
   xmlns:dc="http://purl.org/dc/elements/1.1/"
   xmlns:cc="http://creativecommons.org/ns#"
   xmlns:rdf="http://www.w3.org/1999/02/22-rdf-syntax-ns#"
   xmlns:svg="http://www.w3.org/2000/svg"
   xmlns="http://www.w3.org/2000/svg"
   xmlns:sodipodi="http://sodipodi.sourceforge.net/DTD/sodipodi-0.dtd"
   xmlns:inkscape="http://www.inkscape.org/namespaces/inkscape"
   viewBox="0 0 22 22"
   version="1.1"
   id="svg893"
   sodipodi:docname="podcast-amarok.svg"
   inkscape:export-filename="/home/yves/dev/nerd-dictation/icons/micro.png"
   inkscape:export-xdpi="177.09"
   inkscape:export-ydpi="177.09"
   inkscape:version="0.92.4 (5da689c313, 2019-01-14)">
  <metadata
     id="metadata897">
    <rdf:RDF>
      <cc:Work
         rdf:about="">
        <dc:format>image/svg+xml</dc:format>
        <dc:type
           rdf:resource="http://purl.org/dc/dcmitype/StillImage" />
      </cc:Work>
    </rdf:RDF>
  </metadata>
  <sodipodi:namedview
     pagecolor="#ffffff"
     bordercolor="#666666"
     borderopacity="1"
     objecttolerance="10"
     gridtolerance="10"
     guidetolerance="10"
     inkscape:pageopacity="0"
     inkscape:pageshadow="2"
     inkscape:window-width="1920"
     inkscape:window-height="1011"
     id="namedview895"
     showgrid="false"
     inkscape:zoom="10.727273"
     inkscape:cx="-7.783898"
     inkscape:cy="11"
     inkscape:window-x="0"
     inkscape:window-y="0"
     inkscape:window-maximized="1"
     inkscape:current-layer="svg893" />
  <defs
     id="defs3051">
    <style
       type="text/css"
       id="current-color-scheme">
      .ColorScheme-Text {
        color:#eff0f1;
      }
      </style>
  </defs>
  <path
     style="fill:currentColor;fill-opacity:1;stroke:none"
     d="M 11 3 C 8.790861 3 7 4.7908568 7 7 L 10 7 L 10 8 L 7.15625 8 L 7 8 L 7 11 L 10 11 L 10 12 L 7.15625 12 C 7.6009217 13.724309 9.1368122 15 11 15 C 12.863188 15 14.399078 13.724309 14.84375 12 L 12 12 L 12 11 L 15 11 L 15 8 L 14.84375 8 L 12 8 L 12 7 L 15 7 C 15 4.7908568 13.209139 3 11 3 z M 5.09375 12 C 5.5127507 14.517145 7.4856132 16.48682 10 16.90625 L 10 17 L 9 19 L 13 19 L 12 17 L 12 16.90625 C 14.514386 16.48682 16.487249 14.517145 16.90625 12 L 15.90625 12 C 15.440019 14.278416 13.416246 16 11 16 C 8.5837543 16 6.5599813 14.278416 6.09375 12 L 5.09375 12 z "
     class="ColorScheme-Text"
     id="path891" />
  <path
     style="fill:#000000;fill-opacity:1;stroke:#cb0000;stroke-width:0.11447458;stroke-miterlimit:4;stroke-dasharray:none;stroke-dashoffset:0;stroke-opacity:1"
     d="M 9.8242068,14.822148 C 9.1102415,14.575265 8.5386471,14.203835 8.0692507,13.681753 7.6824759,13.251566 7.1686443,12.352407 7.1686443,12.105772 c 0,-0.06544 0.4738879,-0.09899 1.3983051,-0.09899 H 9.9652545 V 11.494068 10.981356 H 8.4737291 6.9822037 V 9.4898302 7.9983048 H 8.4737291 9.9652545 V 7.4855929 6.9728811 H 8.4617194 6.9581844 l 0.063349,-0.477548 C 7.3169303,4.2685219 9.4639897,2.6576577 11.619916,3.0453264 c 1.575737,0.2833419 2.730321,1.2998718 3.20361,2.8205536 0.0966,0.3103594 0.175627,0.6863999 0.175627,0.8356454 v 0.2713557 h -1.491526 -1.491525 v 0.5127118 0.5127119 h 1.491525 1.491526 v 1.4915254 1.4915258 h -1.491526 -1.491525 v 0.512712 0.512711 h 1.398305 c 1.056983,0 1.398083,0.02844 1.397394,0.116526 -0.0042,0.540442 -1.054068,1.902267 -1.805122,2.341547 -0.893815,0.522777 -2.260263,0.676189 -3.1824722,0.357296 z"
     id="path816"
     inkscape:connector-curvature="0" />
  <path
     style="fill:#000000;fill-opacity:1;stroke:#010000;stroke-width:0.11447458;stroke-miterlimit:4;stroke-dasharray:none;stroke-dashoffset:0;stroke-opacity:1"
     d="m 9.0330511,18.950001 c 0,-0.02657 0.2110663,-0.468902 0.4690361,-0.982967 C 9.7600571,17.452969 9.9492916,16.997046 9.9226084,16.953871 9.8959252,16.910697 9.7163208,16.847108 9.5234875,16.812562 8.843777,16.690794 7.5146395,15.965486 6.9182025,15.390862 6.0268938,14.532151 5.3513927,13.362555 5.1611888,12.348681 L 5.0970477,12.006779 H 5.6009501 6.1048524 L 6.2685,12.538229 c 0.9354007,3.037736 4.702187,4.393688 7.382829,2.657639 1.023753,-0.663007 1.971739,-1.935226 2.150577,-2.886123 0.0561,-0.298308 0.06488,-0.302966 0.571231,-0.302966 h 0.514252 l -0.06211,0.396187 c -0.09619,0.613583 -0.824058,2.012294 -1.355472,2.604766 -0.261762,0.291837 -0.771022,0.726789 -1.131689,0.96656 -0.61469,0.408645 -1.705593,0.873556 -2.060156,0.877979 -0.298661,0.0037 -0.266297,0.182947 0.20131,1.114763 0.25797,0.514065 0.469036,0.9564 0.469036,0.982967 0,0.02657 -0.880932,0.0483 -1.957627,0.0483 -1.0766947,0 -1.9576269,-0.02174 -1.9576269,-0.0483 z"
     id="path818"
     inkscape:connector-curvature="0" />
  <path
     style="fill:#000000;fill-opacity:1;stroke:#040000;stroke-width:0.11447458;stroke-miterlimit:4;stroke-dasharray:none;stroke-dashoffset:0;stroke-opacity:1"
     d="M 9.8103368,14.710159 C 9.1596887,14.49704 8.4385404,13.993283 8.003756,13.448177 7.6479378,13.002074 7.247966,12.238192 7.3281946,12.157964 7.3600747,12.126084 7.9874296,12.1 8.7223167,12.1 H 10.058475 V 11.494068 10.888135 H 8.5669494 7.075424 V 9.4898302 8.0915251 H 8.5669494 10.058475 V 7.4855929 6.8796607 H 8.5669494 c -1.6894175,0 -1.5916091,0.057927 -1.3614898,-0.8063383 0.5172746,-1.9427418 2.4815633,-3.265251 4.3586884,-2.934602 1.581136,0.2785117 2.730605,1.3144747 3.209628,2.8926887 0.270593,0.8915092 0.339916,0.8482516 -1.359369,0.8482516 h -1.491525 v 0.6059322 0.6059322 h 1.491525 1.491525 V 9.4898302 10.888135 H 13.414407 11.922882 V 11.494068 12.1 h 1.346193 c 0.840864,0 1.368934,0.03679 1.406774,0.09802 0.100579,0.162741 -0.526284,1.093347 -1.121611,1.665082 -0.696525,0.668921 -1.364672,0.943894 -2.423729,0.997473 -0.573589,0.02902 -0.878377,-0.0057 -1.3201722,-0.150417 z"
     id="path820"
     inkscape:connector-curvature="0" />
  <path
     style="fill:#000000;fill-opacity:1;stroke:#040000;stroke-width:0.11447458;stroke-miterlimit:4;stroke-dasharray:none;stroke-dashoffset:0;stroke-opacity:1"
     d="M 9.6543618,14.668531 C 9.0435208,14.417372 8.5296757,14.084389 8.1694703,13.70629 7.8796877,13.402112 7.2618647,12.393432 7.2618647,12.224501 c 0,-0.09064 0.332203,-0.12575 1.375,-0.145314 l 1.3750003,-0.0258 V 11.494068 10.934745 L 8.5436443,10.909073 7.075424,10.883401 V 9.4898302 8.0962594 L 8.5436443,8.0705872 10.011865,8.044915 V 7.4855929 6.9262709 L 8.5436443,6.9005987 7.075424,6.8749264 V 6.6122263 c 0,-0.4133618 0.345973,-1.3190155 0.7024556,-1.8388185 C 8.2742945,4.0495633 8.9494662,3.5548582 9.8592312,3.2483805 11.225,2.7882862 12.91734,3.2529458 13.894238,4.3562578 c 0.466655,0.5270417 0.91138,1.4571289 0.982051,2.053839 l 0.05504,0.4647007 -1.480917,0.025737 -1.480917,0.025737 v 0.559322 0.5593221 l 1.46822,0.025672 1.46822,0.025672 v 1.3935708 1.3935706 l -1.46822,0.02567 -1.46822,0.02567 v 0.559323 0.559322 l 1.375,0.0258 c 1.560638,0.02928 1.581623,0.04273 1.12571,0.721631 -1.020227,1.519218 -2.021439,2.098954 -3.615635,2.093579 -0.475475,-0.0016 -0.806107,-0.06382 -1.2002052,-0.225866 z"
     id="path822"
     inkscape:connector-curvature="0" />
  <path
     style="fill:#000000;fill-opacity:1;stroke:#000000;stroke-width:0.11447458;stroke-miterlimit:4;stroke-dasharray:none;stroke-dashoffset:0;stroke-opacity:1"
     d="M 9.7454908,14.756642 C 9.2109364,14.553178 8.7547899,14.260954 8.3045673,13.833535 7.8821488,13.432512 7.2618647,12.498957 7.2618647,12.264221 c 0,-0.162142 0.7124849,-0.257442 1.9246915,-0.257442 H 9.9652545 V 11.496435 10.98609 L 8.4970342,10.960418 7.0288138,10.934745 V 9.4898302 8.044915 L 8.4970342,8.0192427 9.9652545,7.9935705 V 7.4832258 6.9728811 H 8.8116528 c -0.6344809,0 -1.289435,-0.027167 -1.4554534,-0.06037 C 7.0575405,6.852779 7.0548087,6.8473426 7.0979308,6.3985619 7.1618988,5.7328348 7.7233036,4.6662234 8.28752,4.1384649 8.5464835,3.896235 9.0404005,3.5644396 9.3851137,3.4011419 9.9657966,3.1260604 10.08381,3.104237 10.990678,3.104237 c 0.906868,0 1.024882,0.021823 1.605565,0.2969049 0.786911,0.3727763 1.454488,0.9914173 1.829901,1.6957639 0.306987,0.5759672 0.630555,1.6630576 0.526096,1.7675272 -0.03401,0.034011 -0.70855,0.076808 -1.498984,0.095104 l -1.437154,0.033266 v 0.500384 0.5003839 l 1.46822,0.025672 1.468221,0.025672 v 1.4449152 1.4449149 l -1.468221,0.02567 -1.46822,0.02567 v 0.510345 0.510344 l 0.722458,6.62e-4 c 0.397351,3.64e-4 1.005614,0.0274 1.351695,0.06009 0.78093,0.07375 0.804581,0.18256 0.218274,1.004195 -0.536244,0.751478 -1.074823,1.229911 -1.721918,1.52962 -0.44186,0.204653 -0.677174,0.246526 -1.502712,0.267407 -0.687504,0.01739 -1.0858347,-0.01598 -1.3384082,-0.112113 z"
     id="path824"
     inkscape:connector-curvature="0" />
  <path
     style="fill:#000000;fill-opacity:1;stroke:#000000;stroke-width:0.11447458;stroke-miterlimit:4;stroke-dasharray:none;stroke-dashoffset:0;stroke-opacity:1"
     d="M 9.1044828,18.945443 C 9.0754087,18.916369 9.2388225,18.49198 9.4676248,18.002356 9.696427,17.512733 9.8633946,17.059403 9.8386639,16.994955 9.8139332,16.930508 9.6522986,16.851252 9.4794761,16.81883 9.3066534,16.786408 8.8733253,16.61894 8.516525,16.446679 6.9201757,15.67597 5.8535245,14.488903 5.2927413,12.858958 5.0150124,12.051725 5.0326375,12.006779 5.6269157,12.006779 h 0.5091187 l 0.105356,0.396187 c 0.6499669,2.444173 3.4776387,4.034334 6.0038886,3.376329 1.626631,-0.423683 2.864402,-1.638069 3.583874,-3.51616 0.08955,-0.233756 0.140523,-0.256356 0.578221,-0.256356 h 0.480015 l -0.05958,0.37262 c -0.150227,0.939469 -1.070534,2.453837 -1.921726,3.162206 -0.654237,0.544462 -1.638805,1.070589 -2.356941,1.259488 -0.318091,0.08367 -0.476109,0.171461 -0.456616,0.253682 0.01639,0.06915 0.211602,0.510829 0.433795,0.981502 0.327958,0.694715 0.377931,0.865767 0.265534,0.908898 -0.180278,0.06918 -3.6182062,0.06943 -3.6873672,2.7e-4 z"
     id="path826"
     inkscape:connector-curvature="0"
     inkscape:export-xdpi="129"
     inkscape:export-ydpi="129" />
</svg>
