<?xml version="1.0" encoding="UTF-8" standalone="no"?>
<svg
   xmlns:dc="http://purl.org/dc/elements/1.1/"
   xmlns:cc="http://creativecommons.org/ns#"
   xmlns:rdf="http://www.w3.org/1999/02/22-rdf-syntax-ns#"
   xmlns:svg="http://www.w3.org/2000/svg"
   xmlns="http://www.w3.org/2000/svg"
   xmlns:sodipodi="http://sodipodi.sourceforge.net/DTD/sodipodi-0.dtd"
   xmlns:inkscape="http://www.inkscape.org/namespaces/inkscape"
   viewBox="0 0 22 22"
   version="1.1"
   id="svg72"
   sodipodi:docname="no-micro.svg"
   inkscape:version="0.92.4 (5da689c313, 2019-01-14)"
   inkscape:export-filename="/home/yves/dev/nerd-dictation/icons/no-micro.png"
   inkscape:export-xdpi="124.12036"
   inkscape:export-ydpi="124.12036">
  <metadata
     id="metadata76">
    <rdf:RDF>
      <cc:Work
         rdf:about="">
        <dc:format>image/svg+xml</dc:format>
        <dc:type
           rdf:resource="http://purl.org/dc/dcmitype/StillImage" />
        <dc:title />
      </cc:Work>
    </rdf:RDF>
  </metadata>
  <sodipodi:namedview
     pagecolor="#ffffff"
     bordercolor="#666666"
     borderopacity="1"
     objecttolerance="10"
     gridtolerance="10"
     guidetolerance="10"
     inkscape:pageopacity="0"
     inkscape:pageshadow="2"
     inkscape:window-width="1920"
     inkscape:window-height="1011"
     id="namedview74"
     showgrid="false"
     inkscape:zoom="36.772727"
     inkscape:cx="-4.7861558"
     inkscape:cy="11"
     inkscape:window-x="0"
     inkscape:window-y="0"
     inkscape:window-maximized="1"
     inkscape:current-layer="svg72" />
  <defs
     id="defs3051">
    <style
       type="text/css"
       id="current-color-scheme">
      .ColorScheme-Text {
        color:#232629;
      }
      </style>
  </defs>
  <path
     style="fill:currentColor;fill-opacity:1;stroke:none"
     d="M 11 3 C 8.790861 3 7 4.7908568 7 7 L 10 7 L 10 8 L 7.15625 8 L 7 8 L 7 11 L 10 11 L 10 12 L 7.15625 12 C 7.6009217 13.724309 9.1368122 15 11 15 C 12.863188 15 14.399078 13.724309 14.84375 12 L 12 12 L 12 11 L 15 11 L 15 8 L 14.84375 8 L 12 8 L 12 7 L 15 7 C 15 4.7908568 13.209139 3 11 3 z M 5.09375 12 C 5.5127507 14.517145 7.4856132 16.48682 10 16.90625 L 10 17 L 9 19 L 13 19 L 12 17 L 12 16.90625 C 14.514386 16.48682 16.487249 14.517145 16.90625 12 L 15.90625 12 C 15.440019 14.278416 13.416246 16 11 16 C 8.5837543 16 6.5599813 14.278416 6.09375 12 L 5.09375 12 z "
     class="ColorScheme-Text"
     id="path70" />
  <path
     style="fill:none;stroke:#cb0000;stroke-width:0.9231872px;stroke-linecap:butt;stroke-linejoin:miter;stroke-opacity:1"
     d="M 4.5134187,16.505931 C 16.561982,3.6720667 16.561982,3.6720667 16.561982,3.6720667 Z"
     id="path80"
     inkscape:connector-curvature="0"
     inkscape:export-xdpi="111.03"
     inkscape:export-ydpi="111.03" />
  <ellipse
     style="fill:none;fill-opacity:1;stroke:#cb0000;stroke-width:1.22800004;stroke-miterlimit:4;stroke-dasharray:none;stroke-dashoffset:0;stroke-opacity:1"
     id="path814"
     cx="10.646477"
     cy="10.224968"
     rx="8.2805929"
     ry="8.5661306"
     inkscape:export-xdpi="111"
     inkscape:export-ydpi="111" />
</svg>
